<svg width="15" height="15" viewBox="0 0 15 15" fill="none" xmlns="http://www.w3.org/2000/svg">
<path d="M5.27083 11.0625C5.11806 10.8819 5.04167 10.6769 5.04167 10.4475C5.04167 10.2186 5.11806 10.0278 5.27083 9.875L6.8125 8.33333H0.833333C0.597222 8.33333 0.399445 8.25333 0.24 8.09333C0.0800001 7.93389 0 7.73611 0 7.5C0 7.26389 0.0800001 7.06583 0.24 6.90583C0.399445 6.74639 0.597222 6.66667 0.833333 6.66667H6.8125L5.27083 5.125C5.10417 4.95833 5.02083 4.76056 5.02083 4.53167C5.02083 4.30222 5.10417 4.10417 5.27083 3.9375C5.42361 3.77083 5.61472 3.6875 5.84417 3.6875C6.07305 3.6875 6.26389 3.76389 6.41667 3.91667L9.41667 6.91667C9.5 7 9.55917 7.09028 9.59417 7.1875C9.62861 7.28472 9.64583 7.38889 9.64583 7.5C9.64583 7.61111 9.62861 7.71528 9.59417 7.8125C9.55917 7.90972 9.5 8 9.41667 8.08333L6.41667 11.0833C6.25 11.25 6.05556 11.3264 5.83333 11.3125C5.61111 11.2986 5.42361 11.2153 5.27083 11.0625ZM8.33333 15C8.09722 15 7.89944 14.92 7.74 14.76C7.58 14.6006 7.5 14.4028 7.5 14.1667C7.5 13.9306 7.58 13.7328 7.74 13.5733C7.89944 13.4133 8.09722 13.3333 8.33333 13.3333H13.3333V1.66667H8.33333C8.09722 1.66667 7.89944 1.58667 7.74 1.42667C7.58 1.26722 7.5 1.06944 7.5 0.833333C7.5 0.597222 7.58 0.399167 7.74 0.239167C7.89944 0.0797222 8.09722 0 8.33333 0H13.3333C13.7917 0 14.1842 0.163055 14.5108 0.489167C14.8369 0.815833 15 1.20833 15 1.66667V13.3333C15 13.7917 14.8369 14.1842 14.5108 14.5108C14.1842 14.8369 13.7917 15 13.3333 15H8.33333Z" fill="white"/>
</svg>
