<svg width="19" height="20" viewBox="0 0 19 20" fill="none" xmlns="http://www.w3.org/2000/svg">
<path d="M0.75 5.28786V4.95172C0.75 2.63118 2.63118 0.75 4.95172 0.75M0.75 5.28786H4.95172M0.75 5.28786V9.82572M4.95172 5.28786V0.75M4.95172 5.28786V9.82572M4.95172 0.75H14.0274M4.95172 18.9014V14.3636M4.95172 18.9014H14.0274M4.95172 18.9014C2.63118 18.9014 0.75 17.0203 0.75 14.6997V14.3636M0.75 9.82572H4.95172M0.75 9.82572V14.3636M4.95172 9.82572V14.3636M4.95172 9.82572C10.1369 9.82572 13.044 9.82572 18.2292 9.82572M0.75 14.3636H4.95172M18.2292 9.82572V5.28786M18.2292 9.82572V14.3636M14.0274 0.75V5.28786M14.0274 0.75C16.348 0.75 18.2292 2.63118 18.2292 4.95172V5.28786M14.0274 18.9014V14.3636M14.0274 18.9014C16.348 18.9014 18.2292 17.0203 18.2292 14.6997V14.3636M14.0274 5.28786H18.2292M14.0274 5.28786V14.3636M14.0274 14.3636H18.2292" stroke="#9997A8" stroke-width="1.5"/>
</svg>
