<svg width="21" height="22" viewBox="0 0 21 22" fill="none" xmlns="http://www.w3.org/2000/svg">
<path d="M6.15803 21.2018H2.75C1.64543 21.2018 0.75 20.3064 0.75 19.2018V10.5587C0.75 10.0282 0.960714 9.51952 1.33579 9.14445L9.14439 1.33585C9.93481 0.545423 11.2197 0.556311 11.9966 1.36002L19.5258 9.14883C19.8863 9.52177 20.0878 10.0202 20.0878 10.5389V19.2018C20.0878 20.3064 19.1924 21.2018 18.0878 21.2018H13.8604M6.15803 21.2018V13.369C6.15803 12.2645 7.05346 11.369 8.15803 11.369H11.8604C12.9649 11.369 13.8604 12.2645 13.8604 13.369V21.2018M6.15803 21.2018H13.8604" stroke="#9997A8" stroke-width="1.5"/>
</svg>
