<svg width="159" height="42" viewBox="0 0 159 42" fill="none" xmlns="http://www.w3.org/2000/svg">
<path d="M62.0028 14.9091C61.8537 13.6496 61.2488 12.6719 60.1882 11.9759C59.1276 11.2798 57.8267 10.9318 56.2855 10.9318C55.1586 10.9318 54.1726 11.1141 53.3274 11.4787C52.4905 11.8433 51.8359 12.3446 51.3636 12.9826C50.8996 13.6206 50.6676 14.3456 50.6676 15.1577C50.6676 15.8371 50.8292 16.4213 51.1523 16.9102C51.4838 17.3907 51.9064 17.7926 52.4201 18.1158C52.9338 18.4306 53.4724 18.6916 54.0359 18.8988C54.5993 19.0977 55.1172 19.2592 55.5895 19.3835L58.1747 20.0795C58.8376 20.2536 59.575 20.4938 60.3871 20.8004C61.2074 21.107 61.9904 21.5254 62.7362 22.0558C63.4902 22.5778 64.1116 23.2489 64.6005 24.0692C65.0894 24.8896 65.3338 25.8963 65.3338 27.0895C65.3338 28.465 64.9734 29.7079 64.2525 30.8182C63.5399 31.9285 62.4959 32.811 61.1204 33.4656C59.7532 34.1201 58.0919 34.4474 56.1364 34.4474C54.3134 34.4474 52.735 34.1533 51.4009 33.565C50.0752 32.9767 49.0311 32.1564 48.2688 31.104C47.5148 30.0517 47.0881 28.8295 46.9886 27.4375H50.1705C50.2533 28.3987 50.5765 29.1941 51.1399 29.8239C51.7116 30.4453 52.4325 30.9093 53.3026 31.2159C54.1809 31.5142 55.1255 31.6634 56.1364 31.6634C57.313 31.6634 58.3694 31.4728 59.3058 31.0916C60.2421 30.7022 60.9837 30.1636 61.5305 29.4759C62.0774 28.7798 62.3509 27.9678 62.3509 27.0398C62.3509 26.1946 62.1147 25.5069 61.6424 24.9766C61.1701 24.4463 60.5487 24.0154 59.7781 23.6839C59.0075 23.3525 58.1747 23.0625 57.2798 22.8139L54.1477 21.919C52.1591 21.3473 50.5848 20.5311 49.4247 19.4705C48.2647 18.4099 47.6847 17.022 47.6847 15.3068C47.6847 13.8816 48.07 12.6387 48.8406 11.5781C49.6194 10.5092 50.6635 9.68063 51.9727 9.09233C53.2901 8.49574 54.7609 8.19744 56.3849 8.19744C58.0256 8.19744 59.4839 8.49159 60.7599 9.0799C62.036 9.65992 63.0469 10.4554 63.7926 11.4663C64.5466 12.4772 64.9444 13.6248 64.9858 14.9091H62.0028ZM72.7384 27.0398L72.6887 23.4105H73.2852L81.6375 14.9091H85.2668L76.3676 23.9077H76.1191L72.7384 27.0398ZM70.004 34V8.54545H72.9372V34H70.004ZM82.1347 34L74.6773 24.554L76.7654 22.5156L85.8634 34H82.1347ZM90.9313 41.1591C90.4341 41.1591 89.9908 41.1177 89.6014 41.0348C89.2119 40.9602 88.9426 40.8857 88.7935 40.8111L89.5392 38.2259C90.2518 38.4081 90.8816 38.4744 91.4284 38.4247C91.9753 38.375 92.4601 38.1306 92.8826 37.6914C93.3135 37.2605 93.7071 36.5604 94.0634 35.5909L94.6103 34.0994L87.5506 14.9091H90.7324L96.0023 30.1222H96.2012L101.471 14.9091H104.653L96.5492 36.7841C96.1846 37.7701 95.733 38.5863 95.1944 39.2326C94.6558 39.8872 94.0302 40.3719 93.3176 40.6868C92.6133 41.0017 91.8179 41.1591 90.9313 41.1591ZM111.458 22.5156V34H108.525V14.9091H111.358V17.892H111.607C112.054 16.9226 112.734 16.1437 113.645 15.5554C114.557 14.9588 115.733 14.6605 117.175 14.6605C118.468 14.6605 119.599 14.9257 120.568 15.456C121.538 15.978 122.292 16.7734 122.83 17.8423C123.369 18.9029 123.638 20.2453 123.638 21.8693V34H120.705V22.0682C120.705 20.5684 120.315 19.4001 119.537 18.5632C118.758 17.718 117.689 17.2955 116.33 17.2955C115.394 17.2955 114.557 17.4985 113.819 17.9045C113.09 18.3105 112.514 18.9029 112.092 19.6818C111.669 20.4607 111.458 21.4053 111.458 22.5156ZM128.998 34V14.9091H131.931V34H128.998ZM130.49 11.7273C129.918 11.7273 129.425 11.5326 129.011 11.1431C128.605 10.7537 128.402 10.2855 128.402 9.73864C128.402 9.19176 128.605 8.7236 129.011 8.33416C129.425 7.94472 129.918 7.75 130.49 7.75C131.061 7.75 131.55 7.94472 131.956 8.33416C132.371 8.7236 132.578 9.19176 132.578 9.73864C132.578 10.2855 132.371 10.7537 131.956 11.1431C131.55 11.5326 131.061 11.7273 130.49 11.7273ZM150.827 19.1847L148.192 19.9304C148.026 19.4912 147.781 19.0645 147.458 18.6502C147.143 18.2276 146.713 17.8796 146.166 17.6062C145.619 17.3327 144.919 17.196 144.065 17.196C142.897 17.196 141.923 17.4653 141.144 18.0039C140.374 18.5342 139.988 19.2095 139.988 20.0298C139.988 20.759 140.254 21.3349 140.784 21.7575C141.314 22.18 142.143 22.5322 143.27 22.8139L146.104 23.5099C147.81 23.9242 149.082 24.5581 149.919 25.4116C150.756 26.2567 151.175 27.3464 151.175 28.6804C151.175 29.7741 150.86 30.7519 150.23 31.6136C149.608 32.4754 148.738 33.1548 147.62 33.652C146.501 34.1491 145.2 34.3977 143.717 34.3977C141.77 34.3977 140.158 33.9751 138.882 33.13C137.606 32.2848 136.798 31.0502 136.459 29.4261L139.243 28.7301C139.508 29.7576 140.009 30.5282 140.747 31.0419C141.492 31.5556 142.466 31.8125 143.667 31.8125C145.035 31.8125 146.12 31.5225 146.924 30.9425C147.736 30.3542 148.142 29.6499 148.142 28.8295C148.142 28.1667 147.91 27.6115 147.446 27.1641C146.982 26.7083 146.269 26.3686 145.308 26.1449L142.126 25.3991C140.378 24.9848 139.094 24.3427 138.273 23.4727C137.461 22.5943 137.055 21.4964 137.055 20.179C137.055 19.1018 137.358 18.1489 137.963 17.3203C138.576 16.4917 139.408 15.8413 140.461 15.369C141.521 14.8967 142.723 14.6605 144.065 14.6605C145.954 14.6605 147.438 15.0748 148.515 15.9034C149.6 16.732 150.371 17.8258 150.827 19.1847Z" fill="url(#paint0_linear_28_414)"/>
<path d="M2 12.0565V8.94946C2 6.18804 4.23858 3.94946 7 3.94946H9.5065M2 12.0565H9.5065M2 12.0565V20.1635M9.5065 12.0565V3.94946M9.5065 12.0565V20.1635M9.5065 3.94946H25.7205M9.5065 36.3776H7C4.23858 36.3776 2 34.139 2 31.3776V28.2705M9.5065 36.3776V28.2705M9.5065 36.3776H25.7205M2 20.1635H9.5065M2 20.1635V28.2705M9.5065 20.1635V28.2705M9.5065 20.1635C18.77 20.1635 23.9636 20.1635 33.2271 20.1635M2 28.2705H9.5065M33.2271 20.1635V12.0565M33.2271 20.1635V28.2705M25.7205 3.94946H28.227C30.9885 3.94946 33.2271 6.18804 33.2271 8.94946V12.0565M25.7205 3.94946V12.0565M25.7205 36.3776H28.227C30.9885 36.3776 33.2271 34.139 33.2271 31.3776V28.2705M25.7205 36.3776V28.2705M25.7205 12.0565H33.2271M25.7205 12.0565V28.2705M25.7205 28.2705H33.2271" stroke="#DE2B24" stroke-width="4"/>
<defs>
<linearGradient id="paint0_linear_28_414" x1="45" y1="20.5706" x2="159.001" y2="21.2906" gradientUnits="userSpaceOnUse">
<stop offset="0.403846" stop-color="#DE2B24"/>
<stop offset="1" stop-color="#D97672"/>
</linearGradient>
</defs>
</svg>
